<!DOCTYPE svg PUBLIC "-//W3C//DTD SVG 1.1//EN" "http://www.w3.org/Graphics/SVG/1.1/DTD/svg11.dtd">

<!-- Uploaded to: SVG Repo, www.svgrepo.com, Transformed by: SVG Repo Mixer Tools -->
<svg version="1.1" id="Capa_1" xmlns="http://www.w3.org/2000/svg" xmlns:xlink="http://www.w3.org/1999/xlink" viewBox="0 0 485.61 485.61" xml:space="preserve" width="16" height ="16" fill="#000000">

<g id="SVGRepo_bgCarrier" stroke-width="0"/>

<g id="SVGRepo_tracerCarrier" stroke-linecap="round" stroke-linejoin="round"/>

<g id="SVGRepo_iconCarrier"> <g> <g id="XMLID_3_"> <g> <path d="M485.36,91.805v27.71c0,1.73-1.1,3.19-2.64,3.75v288.54c0,2.21-1.79,4-4,4H60.03v19c0,2.21-1.79,4-4,4H25.36 c-2.21,0-4-1.79-4-4v-19H6.89c-2.21,0-4-1.79-4-4v-288.54c-1.53-0.56-2.64-2.02-2.64-3.75v-27.71c0-1.73,1.11-3.19,2.64-3.75 v-20.73c0-2.21,1.79-4,4-4h14.47v-12.52c0-2.21,1.79-4,4-4h30.67c2.21,0,4,1.79,4,4v12.52h418.69c2.21,0,4,1.79,4,4v20.73 C484.26,88.615,485.36,90.075,485.36,91.805z M477.36,115.515v-19.71H60.03v19.71H81.1v-7.64c0-2.21,1.79-4,4-4c2.2,0,4,1.79,4,4 v7.64h7.4v-7.64c0-2.21,1.79-4,4-4s4,1.79,4,4v7.64h7.41v-7.64c0-2.21,1.79-4,4-4c2.21,0,4,1.79,4,4v7.64h7.4v-7.64 c0-2.21,1.79-4,4-4c2.21,0,4,1.79,4,4v7.64h7.41v-7.64c0-2.21,1.79-4,4-4c2.21,0,4,1.79,4,4v7.64h7.4v-7.64c0-2.21,1.79-4,4-4 c2.21,0,4,1.79,4,4v7.64h7.41v-7.64c0-2.21,1.79-4,4-4c2.21,0,4,1.79,4,4v7.64h7.4v-7.64c0-2.21,1.8-4,4-4c2.21,0,4,1.79,4,4 v7.64h7.41v-7.64c0-2.21,1.79-4,4-4c2.21,0,4,1.79,4,4v7.64h7.41v-7.64c0-2.21,1.79-4,4-4c2.2,0,4,1.79,4,4v7.64h7.4v-7.64 c0-2.21,1.79-4,4-4c2.21,0,4,1.79,4,4v7.64h7.41v-7.64c0-2.21,1.79-4,4-4s4,1.79,4,4v7.64h7.4v-7.64c0-2.21,1.79-4,4-4 c2.21,0,4,1.79,4,4v7.64h7.41v-7.64c0-2.21,1.79-4,4-4s4,1.79,4,4v7.64h7.4v-7.64c0-2.21,1.79-4,4-4c2.21,0,4,1.79,4,4v7.64h7.41 v-7.64c0-2.21,1.79-4,4-4c2.21,0,4,1.79,4,4v7.64h7.4v-7.64c0-2.21,1.8-4,4-4c2.21,0,4,1.79,4,4v7.64h7.41v-7.64 c0-2.21,1.79-4,4-4c2.21,0,4,1.79,4,4v7.64h7.4v-7.64c0-2.21,1.8-4,4-4c2.21,0,4,1.79,4,4v7.64h7.41v-7.64c0-2.21,1.79-4,4-4 c2.21,0,4,1.79,4,4v7.64h7.41v-7.64c0-2.21,1.79-4,4-4c2.21,0,4,1.79,4,4v7.64h7.4v-7.64c0-2.21,1.79-4,4-4c2.21,0,4,1.79,4,4 v7.64h7.41v-7.64c0-2.21,1.79-4,4-4c2.21,0,4,1.79,4,4v7.64h7.4v-7.64c0-2.21,1.79-4,4-4c2.21,0,4,1.79,4,4v7.64h7.41v-7.64 c0-2.21,1.79-4,4-4c2.21,0,4,1.79,4,4v7.64H477.36z M474.72,407.805v-19.14H60.03v19.14H474.72z M474.72,380.665v-257.15H60.03 v257.15H474.72z M474.72,87.805v-16.48H60.03v16.48H474.72z M52.03,430.805v-33H29.36v33H52.03z M52.03,389.805v-13.67h-8 c-2.21,0-4-1.79-4-4c0-2.21,1.79-4,4-4h8v-7.46h-8c-2.21,0-4-1.79-4-4c0-2.21,1.79-4,4-4h8v-7.47h-8c-2.21,0-4-1.79-4-4 c0-2.21,1.79-4,4-4h8v-7.47h-8c-2.21,0-4-1.79-4-4c0-2.2,1.79-4,4-4h8v-7.46h-8c-2.21,0-4-1.79-4-4s1.79-4,4-4h8v-7.47h-8 c-2.21,0-4-1.79-4-4c0-2.21,1.79-4,4-4h8v-7.47h-8c-2.21,0-4-1.79-4-4c0-2.21,1.79-4,4-4h8v-7.46h-8c-2.21,0-4-1.79-4-4 s1.79-4,4-4h8v-7.47h-8c-2.21,0-4-1.79-4-4c0-2.21,1.79-4,4-4h8v-7.47h-8c-2.21,0-4-1.79-4-4c0-2.2,1.79-4,4-4h8v-7.46h-8 c-2.21,0-4-1.79-4-4c0-2.21,1.79-4,4-4h8v-7.47h-8c-2.21,0-4-1.79-4-4c0-2.21,1.79-4,4-4h8v-7.47h-8c-2.21,0-4-1.79-4-4 c0-2.2,1.79-4,4-4h8v-7.46h-8c-2.21,0-4-1.79-4-4c0-2.21,1.79-4,4-4h8v-7.47h-8c-2.21,0-4-1.79-4-4c0-2.21,1.79-4,4-4h8v-7.47h-8 c-2.21,0-4-1.79-4-4c0-2.21,1.79-4,4-4h8v-7.46h-8c-2.21,0-4-1.79-4-4c0-2.21,1.79-4,4-4h8v-7.47h-8c-2.21,0-4-1.79-4-4 s1.79-4,4-4h8v-7.47h-8c-2.21,0-4-1.79-4-4c0-2.2,1.79-4,4-4h8v-7.46h-8c-2.21,0-4-1.79-4-4s1.79-4,4-4h8v-7.47h-8 c-2.21,0-4-1.79-4-4s1.79-4,4-4h8v-4H29.36v335H52.03z M21.36,407.805v-19.14H10.89v19.14H21.36z M21.36,380.665v-257.15H10.89 v257.15H21.36z M21.36,115.515v-19.71H8.25v19.71H21.36z M21.36,87.805v-16.48H10.89v16.48H21.36z"/> <path style="fill:#E6E6E6;" d="M477.36,95.805v19.71h-18.53v-7.64c0-2.21-1.79-4-4-4c-2.21,0-4,1.79-4,4v7.64h-7.41v-7.64 c0-2.21-1.79-4-4-4c-2.21,0-4,1.79-4,4v7.64h-7.4v-7.64c0-2.21-1.79-4-4-4c-2.21,0-4,1.79-4,4v7.64h-7.41v-7.64 c0-2.21-1.79-4-4-4c-2.21,0-4,1.79-4,4v7.64h-7.4v-7.64c0-2.21-1.79-4-4-4c-2.21,0-4,1.79-4,4v7.64h-7.41v-7.64 c0-2.21-1.79-4-4-4c-2.21,0-4,1.79-4,4v7.64h-7.41v-7.64c0-2.21-1.79-4-4-4c-2.2,0-4,1.79-4,4v7.64h-7.4v-7.64c0-2.21-1.79-4-4-4 c-2.21,0-4,1.79-4,4v7.64h-7.41v-7.64c0-2.21-1.79-4-4-4c-2.2,0-4,1.79-4,4v7.64h-7.4v-7.64c0-2.21-1.79-4-4-4 c-2.21,0-4,1.79-4,4v7.64h-7.41v-7.64c0-2.21-1.79-4-4-4c-2.21,0-4,1.79-4,4v7.64h-7.4v-7.64c0-2.21-1.79-4-4-4s-4,1.79-4,4v7.64 h-7.41v-7.64c0-2.21-1.79-4-4-4c-2.21,0-4,1.79-4,4v7.64h-7.4v-7.64c0-2.21-1.79-4-4-4s-4,1.79-4,4v7.64h-7.41v-7.64 c0-2.21-1.79-4-4-4c-2.21,0-4,1.79-4,4v7.64h-7.4v-7.64c0-2.21-1.8-4-4-4c-2.21,0-4,1.79-4,4v7.64h-7.41v-7.64c0-2.21-1.79-4-4-4 c-2.21,0-4,1.79-4,4v7.64h-7.41v-7.64c0-2.21-1.79-4-4-4c-2.2,0-4,1.79-4,4v7.64h-7.4v-7.64c0-2.21-1.79-4-4-4 c-2.21,0-4,1.79-4,4v7.64h-7.41v-7.64c0-2.21-1.79-4-4-4c-2.21,0-4,1.79-4,4v7.64h-7.4v-7.64c0-2.21-1.79-4-4-4 c-2.21,0-4,1.79-4,4v7.64h-7.41v-7.64c0-2.21-1.79-4-4-4c-2.21,0-4,1.79-4,4v7.64h-7.4v-7.64c0-2.21-1.79-4-4-4 c-2.21,0-4,1.79-4,4v7.64h-7.41v-7.64c0-2.21-1.79-4-4-4s-4,1.79-4,4v7.64h-7.4v-7.64c0-2.21-1.8-4-4-4c-2.21,0-4,1.79-4,4v7.64 H60.03v-19.71H477.36z"/> <rect x="60.03" y="388.665" style="fill:#c02121;" width="414.69" height="19.14"/> <path style="fill:#ff9e9e;" d="M474.72,123.515v257.15H60.03v-257.15H474.72z M464.96,351.005c0.54-1.24,0.42-2.66-0.32-3.79 c-0.74-1.13-2-1.81-3.35-1.81h-35.82c-1.59,0-3.03,0.94-3.66,2.4l-6.29,14.4c-0.54,1.24-0.42,2.66,0.32,3.79s2,1.81,3.35,1.81 h35.82c1.59,0,3.03-0.94,3.67-2.4L464.96,351.005z M462.03,312.135v-57.33c0-2.21-1.8-4-4-4c-2.21,0-4,1.79-4,4v57.33 c0,2.21,1.79,4,4,4C460.23,316.135,462.03,314.345,462.03,312.135z M459.3,209.565c1.92-0.3,3.39-1.94,3.39-3.94 c0-2.21-1.79-4-4-4h-0.91c-1.85-8.71-4.33-17.34-7.45-25.86c4.32-2.02,7.33-6.4,7.33-11.48c0-5.58-3.64-10.32-8.67-12v-10.66 c0-2.21-1.79-4-4-4c-2.2,0-4,1.79-4,4v10.66c-5.02,1.68-8.66,6.42-8.66,12c0,5.08,3.01,9.46,7.33,11.48 c-3.12,8.52-5.6,17.15-7.46,25.86h-0.9c-2.21,0-4,1.79-4,4c0,2,1.47,3.64,3.39,3.94c-1.53,9.15-2.37,18.37-2.5,27.62 c-0.03,2.21,1.74,4.02,3.95,4.05c0.02,0,0.04,0,0.05,0c2.19,0,3.97-1.76,4-3.95c0.13-9.25,1-18.49,2.61-27.66h12.39 c1.61,9.17,2.48,18.41,2.61,27.66c0.03,2.19,1.81,3.95,4,3.95c0.01,0,0.03,0,0.05,0c2.21-0.03,3.98-1.84,3.95-4.05 C461.67,227.935,460.83,218.715,459.3,209.565z M449.36,312.135v-57.33c0-2.21-1.79-4-4-4c-2.21,0-4,1.79-4,4v57.33 c0,2.21,1.79,4,4,4C447.57,316.135,449.36,314.345,449.36,312.135z M436.69,312.135v-57.33c0-2.21-1.79-4-4-4s-4,1.79-4,4v57.33 c0,2.21,1.79,4,4,4S436.69,314.345,436.69,312.135z M408.89,353.385v-148.45c0-1.8-1.2-3.38-2.94-3.86 c-1.73-0.48-3.57,0.27-4.49,1.81c-5.11,8.59-14.48,13.92-24.47,13.92H168.62c-9.98,0-19.36-5.33-24.46-13.92 c-0.92-1.54-2.76-2.29-4.5-1.81c-1.73,0.48-2.94,2.06-2.94,3.86v150.3c0,3.68,1.26,7.3,3.53,10.19 c5.09,6.47,12.72,10.17,20.94,10.17h225.09c7.04,0,13.58-3.17,17.94-8.71C407.23,363.055,408.89,358.255,408.89,353.385z M384.7,204.135v-62c0-2.21-1.8-4-4-4h-93.34c-2.21,0-4,1.79-4,4v62c0,2.21,1.79,4,4,4h93.34 C382.9,208.135,384.7,206.345,384.7,204.135z M267.57,144.155c1.3-1.07,1.79-2.85,1.21-4.43c-0.57-1.59-2.07-2.65-3.76-2.65 h-151.1c-1.69,0-3.19,1.06-3.77,2.65c-0.57,1.58-0.08,3.36,1.22,4.43l75.55,62.44c0.74,0.61,1.65,0.91,2.55,0.91 s1.81-0.3,2.55-0.91L267.57,144.155z M124.51,254.255c0-2.21-1.79-4-4-4h-6.75v-13.59c0-1.12-0.47-2.2-1.3-2.95 c-0.84-0.76-1.94-1.14-3.07-1.03l-31.48,2.93c-2.06,0.19-3.63,1.92-3.63,3.98v8.95c0,2.21,1.79,4,4,4h16.73v6.02H78.27 c-2.21,0-4,1.79-4,4v8.94c0,2.07,1.58,3.79,3.63,3.98l17.11,1.6v18.22c0,2.21,1.79,4,4,4h0.89v47.79c0,2.21,1.79,4,4,4 s4-1.79,4-4v-47.79h1.86c2.21,0,4-1.79,4-4v-23.37h6.75c2.21,0,4-1.79,4-4c0-2.2-1.79-4-4-4h-6.75v-5.68h6.75 C122.72,258.255,124.51,256.465,124.51,254.255z"/> <rect x="60.03" y="71.325" style="fill:#ff9e9e;" width="414.69" height="16.48"/> <path d="M464.64,347.215c0.74,1.13,0.86,2.55,0.32,3.79l-6.28,14.4c-0.64,1.46-2.08,2.4-3.67,2.4h-35.82 c-1.35,0-2.61-0.68-3.35-1.81s-0.86-2.55-0.32-3.79l6.29-14.4c0.63-1.46,2.07-2.4,3.66-2.4h35.82 C462.64,345.405,463.9,346.085,464.64,347.215z M452.39,359.805l2.8-6.4h-6.52l-2.79,6.4H452.39z M437.15,359.805l2.8-6.4h-11.86 l-2.79,6.4H437.15z"/> <path d="M462.03,254.805v57.33c0,2.21-1.8,4-4,4c-2.21,0-4-1.79-4-4v-57.33c0-2.21,1.79-4,4-4 C460.23,250.805,462.03,252.595,462.03,254.805z"/> <path d="M462.69,205.625c0,2-1.47,3.64-3.39,3.94c1.53,9.15,2.37,18.37,2.5,27.62c0.03,2.21-1.74,4.02-3.95,4.05 c-0.02,0-0.04,0-0.05,0c-2.19,0-3.97-1.76-4-3.95c-0.13-9.25-1-18.49-2.61-27.66H438.8c-1.61,9.17-2.48,18.41-2.61,27.66 c-0.03,2.19-1.81,3.95-4,3.95c-0.01,0-0.03,0-0.05,0c-2.21-0.03-3.98-1.84-3.95-4.05c0.13-9.25,0.97-18.47,2.5-27.62 c-1.92-0.3-3.39-1.94-3.39-3.94c0-2.21,1.79-4,4-4h0.9c1.86-8.71,4.34-17.34,7.46-25.86c-4.32-2.02-7.33-6.4-7.33-11.48 c0-5.58,3.64-10.32,8.66-12v-10.66c0-2.21,1.8-4,4-4c2.21,0,4,1.79,4,4v10.66c5.03,1.68,8.67,6.42,8.67,12 c0,5.08-3.01,9.46-7.33,11.48c3.12,8.52,5.6,17.15,7.45,25.86h0.91C460.9,201.625,462.69,203.415,462.69,205.625z M440.39,201.625h9.21c-1.25-5.65-2.79-11.26-4.61-16.84C443.18,190.365,441.64,195.975,440.39,201.625z M449.66,164.285 c0-2.57-2.09-4.66-4.67-4.66c-2.57,0-4.66,2.09-4.66,4.66c0,2.58,2.09,4.67,4.66,4.67 C447.57,168.955,449.66,166.865,449.66,164.285z"/> <polygon style="fill:#E8653D;" points="455.19,353.405 452.39,359.805 445.88,359.805 448.67,353.405 "/> <path style="fill:#ff9e9e;" d="M449.6,201.625h-9.21c1.25-5.65,2.79-11.26,4.6-16.84 C446.81,190.365,448.35,195.975,449.6,201.625z"/> <path d="M449.36,254.805v57.33c0,2.21-1.79,4-4,4c-2.21,0-4-1.79-4-4v-57.33c0-2.21,1.79-4,4-4 C447.57,250.805,449.36,252.595,449.36,254.805z"/> <path style="fill:#ff9e9e;" d="M444.99,159.625c2.58,0,4.67,2.09,4.67,4.66c0,2.58-2.09,4.67-4.67,4.67 c-2.57,0-4.66-2.09-4.66-4.67C440.33,161.715,442.42,159.625,444.99,159.625z"/> <polygon style="fill:#c02121;" points="439.95,353.405 437.15,359.805 425.3,359.805 428.09,353.405 "/> <path d="M436.69,254.805v57.33c0,2.21-1.79,4-4,4s-4-1.79-4-4v-57.33c0-2.21,1.79-4,4-4S436.69,252.595,436.69,254.805z"/> <path d="M408.89,204.935v148.45c0,4.87-1.66,9.67-4.67,13.5c-4.36,5.54-10.9,8.71-17.94,8.71H161.19 c-8.22,0-15.85-3.7-20.94-10.17c-2.27-2.89-3.53-6.51-3.53-10.19v-150.3c0-1.8,1.21-3.38,2.94-3.86c1.74-0.48,3.58,0.27,4.5,1.81 c5.1,8.59,14.48,13.92,24.46,13.92h208.37c9.99,0,19.36-5.33,24.47-13.92c0.92-1.54,2.76-2.29,4.49-1.81 C407.69,201.555,408.89,203.135,408.89,204.935z M400.89,353.385v-137.53c-6.55,5.67-15.03,8.95-23.9,8.95H168.62 c-8.86,0-17.35-3.28-23.9-8.95v139.38c0,1.9,0.65,3.76,1.82,5.25c3.56,4.52,8.9,7.11,14.65,7.11h225.09 c4.57,0,8.82-2.06,11.65-5.65C399.84,359.515,400.89,356.475,400.89,353.385z"/> <path d="M384.7,142.135v62c0,2.21-1.8,4-4,4h-93.34c-2.21,0-4-1.79-4-4v-62c0-2.21,1.79-4,4-4h93.34 C382.9,138.135,384.7,139.925,384.7,142.135z M376.7,200.135v-54h-85.34v54H376.7z"/> <path style="fill:#666666;" d="M376.7,146.135v54h-85.34v-54H376.7z M372.03,154.805c0-2.21-1.79-4-4-4h-68c-2.21,0-4,1.79-4,4 c0,2.21,1.79,4,4,4h68C370.24,158.805,372.03,157.015,372.03,154.805z M371.15,169.905c0-2.21-1.79-4-4-4h-7.36 c-2.21,0-4,1.79-4,4c0,2.21,1.79,4,4,4h7.36C369.36,173.905,371.15,172.115,371.15,169.905z M371.15,180.575c0-2.21-1.79-4-4-4 h-7.36c-2.21,0-4,1.79-4,4c0,2.21,1.79,4,4,4h7.36C369.36,184.575,371.15,182.785,371.15,180.575z M371.15,191.235 c0-2.2-1.79-4-4-4h-7.36c-2.21,0-4,1.8-4,4c0,2.21,1.79,4,4,4h7.36C369.36,195.235,371.15,193.445,371.15,191.235z M351.3,169.905c0-2.21-1.79-4-4-4h-7.36c-2.21,0-4,1.79-4,4c0,2.21,1.79,4,4,4h7.36C349.51,173.905,351.3,172.115,351.3,169.905 z M351.3,180.575c0-2.21-1.79-4-4-4h-7.36c-2.21,0-4,1.79-4,4c0,2.21,1.79,4,4,4h7.36 C349.51,184.575,351.3,182.785,351.3,180.575z M351.3,191.235c0-2.2-1.79-4-4-4h-7.36c-2.21,0-4,1.8-4,4c0,2.21,1.79,4,4,4h7.36 C349.51,195.235,351.3,193.445,351.3,191.235z M331.45,169.905c0-2.21-1.79-4-4-4h-7.36c-2.21,0-4,1.79-4,4c0,2.21,1.79,4,4,4 h7.36C329.66,173.905,331.45,172.115,331.45,169.905z M331.45,180.575c0-2.21-1.79-4-4-4h-7.36c-2.21,0-4,1.79-4,4 c0,2.21,1.79,4,4,4h7.36C329.66,184.575,331.45,182.785,331.45,180.575z M331.45,191.235c0-2.2-1.79-4-4-4h-7.36 c-2.21,0-4,1.8-4,4c0,2.21,1.79,4,4,4h7.36C329.66,195.235,331.45,193.445,331.45,191.235z M311.6,169.905c0-2.21-1.79-4-4-4 h-7.36c-2.21,0-4,1.79-4,4c0,2.21,1.79,4,4,4h7.36C309.81,173.905,311.6,172.115,311.6,169.905z M311.6,180.575 c0-2.21-1.79-4-4-4h-7.36c-2.21,0-4,1.79-4,4c0,2.21,1.79,4,4,4h7.36C309.81,184.575,311.6,182.785,311.6,180.575z M311.6,191.235c0-2.2-1.79-4-4-4h-7.36c-2.21,0-4,1.8-4,4c0,2.21,1.79,4,4,4h7.36C309.81,195.235,311.6,193.445,311.6,191.235z"/> <path d="M368.03,150.805c2.21,0,4,1.79,4,4c0,2.21-1.79,4-4,4h-68c-2.21,0-4-1.79-4-4c0-2.21,1.79-4,4-4H368.03z"/> <path d="M367.15,165.905c2.21,0,4,1.79,4,4c0,2.21-1.79,4-4,4h-7.36c-2.21,0-4-1.79-4-4c0-2.21,1.79-4,4-4H367.15z"/> <path d="M367.15,176.575c2.21,0,4,1.79,4,4c0,2.21-1.79,4-4,4h-7.36c-2.21,0-4-1.79-4-4c0-2.21,1.79-4,4-4H367.15z"/> <path d="M367.15,187.235c2.21,0,4,1.8,4,4c0,2.21-1.79,4-4,4h-7.36c-2.21,0-4-1.79-4-4c0-2.2,1.79-4,4-4H367.15z"/> <path d="M347.3,165.905c2.21,0,4,1.79,4,4c0,2.21-1.79,4-4,4h-7.36c-2.21,0-4-1.79-4-4c0-2.21,1.79-4,4-4H347.3z"/> <path d="M347.3,176.575c2.21,0,4,1.79,4,4c0,2.21-1.79,4-4,4h-7.36c-2.21,0-4-1.79-4-4c0-2.21,1.79-4,4-4H347.3z"/> <path d="M347.3,187.235c2.21,0,4,1.8,4,4c0,2.21-1.79,4-4,4h-7.36c-2.21,0-4-1.79-4-4c0-2.2,1.79-4,4-4H347.3z"/> <path d="M341.66,292.195c1.81,1.27,2.25,3.76,0.98,5.57c-0.78,1.11-2.02,1.71-3.28,1.71c-0.79,0-1.59-0.24-2.29-0.73 l-53.34-37.33c-1.8-1.27-2.25-3.76-0.98-5.57s3.76-2.25,5.57-0.98L341.66,292.195z"/> <path d="M338.69,307.705c1.97,1,2.76,3.41,1.76,5.38l-8.73,17.24c-0.48,0.95-1.32,1.67-2.33,2c-0.4,0.13-0.82,0.19-1.24,0.19 c-0.63,0-1.25-0.14-1.81-0.43l-126.67-64.18c-1.97-1-2.76-3.4-1.76-5.37l8.74-17.25c0.48-0.95,1.31-1.66,2.32-1.99 s2.11-0.25,3.06,0.23L338.69,307.705z M326.39,323.145l5.12-10.11l-6.73-3.41l-1.5,2.98c-0.71,1.39-2.11,2.19-3.57,2.19 c-0.61,0-1.23-0.14-1.81-0.43c-1.97-1-2.76-3.41-1.76-5.38l1.51-2.97l-7-3.55l-1.51,2.97c-0.7,1.39-2.11,2.2-3.57,2.2 c-0.61,0-1.22-0.14-1.8-0.44c-1.97-0.99-2.76-3.4-1.76-5.37l1.5-2.98l-7-3.54l-1.5,2.97c-0.71,1.39-2.11,2.19-3.57,2.19 c-0.61,0-1.23-0.13-1.81-0.43c-1.97-1-2.76-3.4-1.76-5.37l1.51-2.98l-7-3.54l-1.51,2.97c-0.7,1.39-2.11,2.19-3.57,2.19 c-0.61,0-1.22-0.14-1.8-0.43c-1.97-1-2.76-3.41-1.76-5.38l1.5-2.97l-7-3.55l-1.5,2.98c-0.71,1.39-2.11,2.19-3.57,2.19 c-0.61,0-1.23-0.14-1.81-0.43c-1.97-1-2.76-3.41-1.76-5.38l1.51-2.97l-7-3.55l-1.51,2.98c-0.7,1.39-2.11,2.19-3.57,2.19 c-0.61,0-1.22-0.14-1.8-0.44c-1.97-0.99-2.76-3.4-1.76-5.37l1.5-2.98l-7-3.54l-1.5,2.97c-0.71,1.39-2.11,2.2-3.57,2.2 c-0.61,0-1.23-0.14-1.81-0.44c-1.97-1-2.76-3.4-1.76-5.37l1.51-2.98l-7-3.54l-1.51,2.97c-0.7,1.39-2.11,2.19-3.57,2.19 c-0.61,0-1.22-0.14-1.8-0.43c-1.97-1-2.76-3.4-1.76-5.38l1.5-2.97l-6.72-3.41l-5.12,10.11L326.39,323.145z"/> <path style="fill:#F9F1A5;" d="M331.51,313.035l-5.12,10.11l-119.53-60.57l5.12-10.11l6.72,3.41l-1.5,2.97 c-1,1.98-0.21,4.38,1.76,5.38c0.58,0.29,1.19,0.43,1.8,0.43c1.46,0,2.87-0.8,3.57-2.19l1.51-2.97l7,3.54l-1.51,2.98 c-1,1.97-0.21,4.37,1.76,5.37c0.58,0.3,1.2,0.44,1.81,0.44c1.46,0,2.86-0.81,3.57-2.2l1.5-2.97l7,3.54l-1.5,2.98 c-1,1.97-0.21,4.38,1.76,5.37c0.58,0.3,1.19,0.44,1.8,0.44c1.46,0,2.87-0.8,3.57-2.19l1.51-2.98l7,3.55l-1.51,2.97 c-1,1.97-0.21,4.38,1.76,5.38c0.58,0.29,1.2,0.43,1.81,0.43c1.46,0,2.86-0.8,3.57-2.19l1.5-2.98l7,3.55l-1.5,2.97 c-1,1.97-0.21,4.38,1.76,5.38c0.58,0.29,1.19,0.43,1.8,0.43c1.46,0,2.87-0.8,3.57-2.19l1.51-2.97l7,3.54l-1.51,2.98 c-1,1.97-0.21,4.37,1.76,5.37c0.58,0.3,1.2,0.43,1.81,0.43c1.46,0,2.86-0.8,3.57-2.19l1.5-2.97l7,3.54l-1.5,2.98 c-1,1.97-0.21,4.38,1.76,5.37c0.58,0.3,1.19,0.44,1.8,0.44c1.46,0,2.87-0.81,3.57-2.2l1.51-2.97l7,3.55l-1.51,2.97 c-1,1.97-0.21,4.38,1.76,5.38c0.58,0.29,1.2,0.43,1.81,0.43c1.46,0,2.86-0.8,3.57-2.19l1.5-2.98L331.51,313.035z"/> <path d="M327.45,165.905c2.21,0,4,1.79,4,4c0,2.21-1.79,4-4,4h-7.36c-2.21,0-4-1.79-4-4c0-2.21,1.79-4,4-4H327.45z"/> <path d="M327.45,176.575c2.21,0,4,1.79,4,4c0,2.21-1.79,4-4,4h-7.36c-2.21,0-4-1.79-4-4c0-2.21,1.79-4,4-4H327.45z"/> <path d="M327.45,187.235c2.21,0,4,1.8,4,4c0,2.21-1.79,4-4,4h-7.36c-2.21,0-4-1.79-4-4c0-2.2,1.79-4,4-4H327.45z"/> <path d="M307.6,165.905c2.21,0,4,1.79,4,4c0,2.21-1.79,4-4,4h-7.36c-2.21,0-4-1.79-4-4c0-2.21,1.79-4,4-4H307.6z"/> <path d="M307.6,176.575c2.21,0,4,1.79,4,4c0,2.21-1.79,4-4,4h-7.36c-2.21,0-4-1.79-4-4c0-2.21,1.79-4,4-4H307.6z"/> <path d="M307.6,187.235c2.21,0,4,1.8,4,4c0,2.21-1.79,4-4,4h-7.36c-2.21,0-4-1.79-4-4c0-2.2,1.79-4,4-4H307.6z"/> <path d="M268.78,139.725c0.58,1.58,0.09,3.36-1.21,4.43l-75.55,62.44c-0.74,0.61-1.65,0.91-2.55,0.91s-1.81-0.3-2.55-0.91 l-75.55-62.44c-1.3-1.07-1.79-2.85-1.22-4.43c0.58-1.59,2.08-2.65,3.77-2.65h151.1C266.71,137.075,268.21,138.135,268.78,139.725 z M189.47,198.315l64.43-53.24H125.04L189.47,198.315z"/> <path style="fill:#E8653D;" d="M253.9,145.075l-64.43,53.24l-64.43-53.24H253.9z M223.09,160.155c1.3-1.07,1.79-2.85,1.22-4.43 c-0.58-1.59-2.08-2.65-3.77-2.65H158.4c-1.69,0-3.2,1.06-3.77,2.65c-0.57,1.58-0.08,3.36,1.22,4.43l31.07,25.68 c0.74,0.61,1.65,0.92,2.55,0.92s1.81-0.31,2.55-0.92L223.09,160.155z"/> <path d="M224.31,155.725c0.57,1.58,0.08,3.36-1.22,4.43l-31.07,25.68c-0.74,0.61-1.65,0.92-2.55,0.92s-1.81-0.31-2.55-0.92 l-31.07-25.68c-1.3-1.07-1.79-2.85-1.22-4.43c0.57-1.59,2.08-2.65,3.77-2.65h62.14C222.23,153.075,223.73,154.135,224.31,155.725 z M189.47,177.565l19.95-16.49h-39.9L189.47,177.565z"/> <polygon style="fill:#ff9e9e;" points="209.42,161.075 189.47,177.565 169.52,161.075 "/> <path d="M120.51,250.255c2.21,0,4,1.79,4,4c0,2.21-1.79,4-4,4h-6.75v5.68h6.75c2.21,0,4,1.8,4,4c0,2.21-1.79,4-4,4h-6.75v23.37 c0,2.21-1.79,4-4,4h-1.86v47.79c0,2.21-1.79,4-4,4s-4-1.79-4-4v-47.79h-0.89c-2.21,0-4-1.79-4-4v-18.22l-17.11-1.6 c-2.05-0.19-3.63-1.91-3.63-3.98v-8.94c0-2.21,1.79-4,4-4h16.74v-6.02H78.28c-2.21,0-4-1.79-4-4v-8.95 c0-2.06,1.57-3.79,3.63-3.98l31.48-2.93c1.13-0.11,2.23,0.27,3.07,1.03c0.83,0.75,1.3,1.83,1.3,2.95v13.59H120.51z M105.76,291.305v-13.22l-2.75-0.26v13.48H105.76z M105.76,270.045v-3.48H82.27v1.29L105.76,270.045z M105.76,258.565v-17.51 l-23.48,2.19v1.3h16.73c2.21,0,4,1.79,4,4v10.02H105.76z"/> <polygon style="fill:#B3B3B3;" points="105.76,278.085 105.76,291.305 103.01,291.305 103.01,277.825 "/> <polygon style="fill:#B3B3B3;" points="105.76,266.565 105.76,270.045 82.27,267.855 82.27,266.565 "/> <path style="fill:#B3B3B3;" d="M105.76,241.055v17.51h-2.75v-10.02c0-2.21-1.79-4-4-4H82.28v-1.3L105.76,241.055z"/> <rect x="29.36" y="397.805" style="fill:#B3B3B3;" width="22.67" height="33"/> <path style="fill:#E6E6E6;" d="M52.03,376.135v13.67H29.36v-335h22.67v4h-8c-2.21,0-4,1.79-4,4s1.79,4,4,4h8v7.47h-8 c-2.21,0-4,1.79-4,4s1.79,4,4,4h8v7.46h-8c-2.21,0-4,1.8-4,4c0,2.21,1.79,4,4,4h8v7.47h-8c-2.21,0-4,1.79-4,4s1.79,4,4,4h8v7.47 h-8c-2.21,0-4,1.79-4,4c0,2.21,1.79,4,4,4h8v7.46h-8c-2.21,0-4,1.79-4,4c0,2.21,1.79,4,4,4h8v7.47h-8c-2.21,0-4,1.79-4,4 c0,2.21,1.79,4,4,4h8v7.47h-8c-2.21,0-4,1.79-4,4c0,2.21,1.79,4,4,4h8v7.46h-8c-2.21,0-4,1.8-4,4c0,2.21,1.79,4,4,4h8v7.47h-8 c-2.21,0-4,1.79-4,4c0,2.21,1.79,4,4,4h8v7.47h-8c-2.21,0-4,1.79-4,4c0,2.21,1.79,4,4,4h8v7.46h-8c-2.21,0-4,1.8-4,4 c0,2.21,1.79,4,4,4h8v7.47h-8c-2.21,0-4,1.79-4,4c0,2.21,1.79,4,4,4h8v7.47h-8c-2.21,0-4,1.79-4,4s1.79,4,4,4h8v7.46h-8 c-2.21,0-4,1.79-4,4c0,2.21,1.79,4,4,4h8v7.47h-8c-2.21,0-4,1.79-4,4c0,2.21,1.79,4,4,4h8v7.47h-8c-2.21,0-4,1.79-4,4s1.79,4,4,4 h8v7.46h-8c-2.21,0-4,1.8-4,4c0,2.21,1.79,4,4,4h8v7.47h-8c-2.21,0-4,1.79-4,4c0,2.21,1.79,4,4,4h8v7.47h-8c-2.21,0-4,1.79-4,4 c0,2.21,1.79,4,4,4h8v7.46h-8c-2.21,0-4,1.79-4,4c0,2.21,1.79,4,4,4H52.03z"/> <rect x="10.89" y="388.665" style="fill:#c02121;" width="10.47" height="19.14"/> <rect x="10.89" y="123.515" style="fill:#ff9e9e;" width="10.47" height="257.15"/> <rect x="8.25" y="95.805" style="fill:#E6E6E6;" width="13.11" height="19.71"/> <rect x="10.89" y="71.325" style="fill:#ff9e9e;" width="10.47" height="16.48"/> </g> <g> </g> </g> </g> </g>

</svg>