<?xml version="1.0" encoding="iso-8859-1"?>
<!-- Uploaded to: SVG Repo, www.svgrepo.com, Generator: SVG Repo Mixer Tools -->
<svg width="16" height="16" version="1.1" id="Layer_1" xmlns="http://www.w3.org/2000/svg" xmlns:xlink="http://www.w3.org/1999/xlink" 
	 viewBox="0 0 512 512" xml:space="preserve">
<polygon style="fill:#F2F2F2;" points="181.438,31.48 146.224,0.006 108.077,17.541 133.02,38.083 120.548,47.619 121.282,73.296 
	149.892,85.768 93.404,162.063 67.728,159.862 51.589,176.002 80.199,220.752 27.379,223.686 47.186,244.961 68.461,244.961 
	47.186,266.97 65.527,285.31 87.535,275.039 94.871,256.699 105.142,286.044 91.938,308.786 105.876,374.077 133.753,438.636 
	152.094,488.521 170.434,511.997 211.516,466.513 218.852,374.811 275.341,334.462 326.693,295.581 326.693,280.174 
	364.842,259.634 345.768,214.884 349.436,177.469 365.575,177.469 372.911,206.08 415.461,207.547 394.186,231.756 411.793,232.49 
	427.199,261.835 454.342,176.735 484.621,150.325 461.679,124.649 399.321,163.531 403.724,177.469 349.436,177.469 
	340.632,189.207 340.632,189.207 281.943,178.203 218.119,149.592 233.525,123.915 197.577,100.44 195.377,82.1 212.984,80.632 
	201.98,57.89 220.32,46.152 222.52,30.746 207.115,24.144 "/>
<polygon style="fill:#87E87C;" points="257.41,347.263 218.849,374.81 211.517,466.516 170.429,512 152.084,488.521 133.75,438.64 
	105.874,374.074 100.152,347.263 "/>
<g>
	<polygon style="fill:#F4C653;" points="349.431,177.473 346.258,209.824 73.216,209.824 51.584,176 67.72,159.864 93.397,162.062 
		149.884,85.768 121.273,73.292 120.547,47.615 133.012,38.085 108.071,17.541 146.224,0 181.431,31.479 207.108,24.147 
		222.519,30.742 220.309,46.153 201.975,57.892 212.978,80.635 195.369,82.096 197.567,100.442 233.522,123.921 218.111,149.586 
		281.941,178.198 340.627,189.212 	"/>
	<polygon style="fill:#F4C653;" points="484.615,150.323 454.338,176.737 443.788,209.824 413.454,209.824 415.46,207.547 
		372.91,206.085 365.567,177.473 403.72,177.473 399.312,163.535 461.669,124.646 	"/>
</g>
<g>
	<path style="fill:#53BEF4;" d="M199.082,250.4c1.403,4.806,2.129,9.611,2.653,14.416c0.496,4.806,0.727,9.611,0.732,14.416
		c0.006,4.806-0.227,9.611-0.722,14.416c-0.521,4.806-1.251,9.611-2.662,14.416c-1.411-4.806-2.141-9.611-2.662-14.416
		c-0.496-4.806-0.727-9.611-0.723-14.416c0.003-4.806,0.235-9.611,0.732-14.416C196.953,260.011,197.68,255.206,199.082,250.4z"/>
	<path style="fill:#53BEF4;" d="M219.47,258.845c-2.407,4.39-5.291,8.301-8.318,12.069c-3.047,3.75-6.281,7.31-9.677,10.71
		c-3.394,3.402-6.956,6.636-10.705,9.683c-3.767,3.029-7.68,5.912-12.076,8.312c2.4-4.395,5.283-8.309,8.312-12.076
		c3.047-3.748,6.281-7.311,9.683-10.705c3.401-3.395,6.962-6.63,10.71-9.677C211.168,264.135,215.081,261.251,219.47,258.845z"/>
	<path style="fill:#53BEF4;" d="M227.915,279.233c-4.806,1.402-9.611,2.129-14.416,2.653c-4.806,0.496-9.611,0.727-14.416,0.732
		c-4.806,0.006-9.611-0.227-14.416-0.723c-4.806-0.521-9.611-1.251-14.416-2.662c4.806-1.411,9.611-2.141,14.416-2.662
		c4.806-0.496,9.611-0.727,14.416-0.722c4.806,0.003,9.611,0.235,14.416,0.732C218.304,277.104,223.109,277.83,227.915,279.233z"/>
	<path style="fill:#53BEF4;" d="M219.47,299.62c-4.39-2.407-8.301-5.291-12.069-8.318c-3.75-3.047-7.31-6.281-10.71-9.677
		c-3.402-3.394-6.636-6.956-9.683-10.705c-3.029-3.767-5.912-7.68-8.312-12.076c4.395,2.4,8.309,5.283,12.076,8.312
		c3.748,3.047,7.311,6.281,10.705,9.683c3.395,3.401,6.63,6.962,9.677,10.71C214.18,291.319,217.064,295.231,219.47,299.62z"/>
	<path style="fill:#53BEF4;" d="M199.082,325.955c-25.762,0-46.722-20.96-46.722-46.722c0-25.763,20.96-46.723,46.722-46.723
		c25.763,0,46.723,20.96,46.723,46.723C245.805,304.995,224.845,325.955,199.082,325.955z M199.082,239.28
		c-22.029,0-39.951,17.923-39.951,39.952s17.922,39.951,39.951,39.951s39.952-17.922,39.952-39.951S221.112,239.28,199.082,239.28z"
		/>
</g>
</svg>