<?xml version="1.0" encoding="iso-8859-1"?>
<!-- Uploaded to: SVG Repo, www.svgrepo.com, Generator: SVG Repo Mixer Tools -->
<svg version="1.1" width="16" height="16" id="Layer_1" xmlns="http://www.w3.org/2000/svg" xmlns:xlink="http://www.w3.org/1999/xlink" 
	 viewBox="0 0 491.52 491.52" xml:space="preserve">
<path style="fill:#E56353;" d="M470.519,0H20.999C9.401,0,0,9.401,0,21v70.842h491.52V21C491.52,9.401,482.117,0,470.519,0z"/>
<path style="fill:#D5D6DB;" d="M0,91.842V470.52c0,11.598,9.401,21,20.999,21h449.52c11.598,0,21.001-9.403,21.001-21V91.842
	L0,91.842L0,91.842z"/>
<path style="fill:#EBF0F3;" d="M0,91.842v360.804c0,11.598,9.401,21,20.999,21h449.52c11.598,0,21.001-9.402,21.001-21V91.842H0z"/>
<circle style="fill:#D15241;" cx="59.407" cy="69.499" r="12.856"/>
<circle style="fill:#D5D6DB;" cx="59.407" cy="114.186" r="12.861"/>
<path style="fill:#64798A;" d="M59.407,61.058c-4.891,0-8.855,3.964-8.855,8.854v43.86c0,4.889,3.964,8.853,8.855,8.853
	c4.889,0,8.852-3.964,8.852-8.853v-43.86C68.259,65.021,64.296,61.058,59.407,61.058z"/>
<circle style="fill:#D15241;" cx="432.128" cy="69.499" r="12.856"/>
<circle style="fill:#D5D6DB;" cx="432.128" cy="114.186" r="12.856"/>
<path style="fill:#64798A;" d="M432.114,61.058c-4.89,0-8.854,3.964-8.854,8.854v43.86c0,4.889,3.964,8.853,8.854,8.853
	c4.889,0,8.853-3.964,8.853-8.853v-43.86C440.966,65.021,437.003,61.058,432.114,61.058z"/>
<circle style="fill:#D15241;" cx="307.866" cy="69.499" r="12.856"/>
<circle style="fill:#D5D6DB;" cx="307.866" cy="114.186" r="12.856"/>
<path style="fill:#64798A;" d="M307.878,61.058c-4.89,0-8.854,3.964-8.854,8.854v43.86c0,4.889,3.964,8.853,8.854,8.853
	c4.889,0,8.853-3.964,8.853-8.853v-43.86C316.731,65.021,312.767,61.058,307.878,61.058z"/>
<circle style="fill:#D15241;" cx="183.644" cy="69.499" r="12.856"/>
<circle style="fill:#D5D6DB;" cx="183.644" cy="114.186" r="12.861"/>
<path style="fill:#64798A;" d="M183.643,61.058c-4.892,0-8.854,3.964-8.854,8.854v43.86c0,4.889,3.962,8.853,8.854,8.853
	c4.889,0,8.853-3.964,8.853-8.853v-43.86C192.495,65.021,188.532,61.058,183.643,61.058z"/>
<rect x="182.907" y="169.421" style="fill:#D5D6DB;" width="47.565" height="47.565"/>
<rect x="261.048" y="169.421" style="fill:#44C4A1;" width="47.56" height="47.565"/>
<rect x="339.2" y="169.421" style="fill:#D5D6DB;" width="47.565" height="47.565"/>
<rect x="417.331" y="169.421" style="fill:#E56353;" width="47.565" height="47.565"/>
<g>
	<rect x="26.619" y="244.116" style="fill:#D5D6DB;" width="47.565" height="47.565"/>
	<rect x="104.76" y="244.116" style="fill:#D5D6DB;" width="47.565" height="47.565"/>
	<rect x="182.907" y="244.116" style="fill:#D5D6DB;" width="47.565" height="47.565"/>
</g>
<rect x="261.048" y="244.116" style="fill:#44C4A1;" width="47.56" height="47.565"/>
<rect x="339.2" y="244.116" style="fill:#D5D6DB;" width="47.565" height="47.565"/>
<rect x="417.331" y="244.116" style="fill:#E56353;" width="47.565" height="47.565"/>
<g>
	<rect x="26.619" y="318.822" style="fill:#D5D6DB;" width="47.565" height="47.565"/>
	<rect x="104.76" y="318.822" style="fill:#D5D6DB;" width="47.565" height="47.565"/>
	<rect x="182.907" y="318.822" style="fill:#D5D6DB;" width="47.565" height="47.565"/>
</g>
<rect x="261.048" y="318.822" style="fill:#44C4A1;" width="47.56" height="47.565"/>
<rect x="339.2" y="318.822" style="fill:#D5D6DB;" width="47.565" height="47.565"/>
<rect x="417.331" y="318.822" style="fill:#E56353;" width="47.565" height="47.565"/>
<g>
	<rect x="26.619" y="393.523" style="fill:#D5D6DB;" width="47.565" height="47.565"/>
	<rect x="104.76" y="393.523" style="fill:#D5D6DB;" width="47.565" height="47.565"/>
	<rect x="182.907" y="393.523" style="fill:#D5D6DB;" width="47.565" height="47.565"/>
</g>
</svg>