<?xml version="1.0" ?>

<!-- Uploaded to: SVG Repo, www.svgrepo.com, Generator: SVG Repo Mixer Tools -->
<svg width="16" height ="16" viewBox="0 0 64 64" xmlns="http://www.w3.org/2000/svg">

<g id="a"/>

<g id="b"/>

<g id="c"/>

<g id="d"/>

<g id="e"/>

<g id="f">

<path d="M59,46.36v-4.46c0-1.73-1.94-2.75-3.68-1.55-1.73,1.2-4.41,1.2-6.45-.21-2.03-1.41-4.72-1.41-6.75,0-2.03,1.41-4.72,1.41-6.75,0-1.02-.71-2.2-1.06-3.38-1.06s-2.36,.35-3.38,1.06c-2.03,1.41-4.72,1.41-6.75,0-1.02-.71-2.2-1.05-3.38-1.05s-2.36,.35-3.38,1.05c-2.03,1.41-4.72,1.41-6.45,.21-1.73-1.2-3.68-.18-3.68,1.55v4.46H59Z" fill="#62d9fa" fill-rule="evenodd"/>

<polygon fill="#8598ab" fill-rule="evenodd" points="55.82 45.48 55.82 34.52 50.78 34.52 50.78 46.65 55.82 45.48"/>

<polygon fill="#8598ab" fill-rule="evenodd" points="13.22 46.65 13.22 34.52 8.18 34.52 8.18 45.49 13.22 46.65"/>

<path d="M32,43.54c-1.18,0-2.36,.35-3.38,1.06-2.03,1.41-4.72,1.41-6.75,0-1.02-.7-2.2-1.05-3.38-1.05s-2.36,.35-3.38,1.05c-2.03,1.41-4.72,1.41-6.45,.21-1.73-1.2-3.68-.18-3.68,1.55v4.46l28.1,1.43,25.9-1.43v-4.46c0-1.73-1.94-2.75-3.68-1.55-1.73,1.2-4.41,1.2-6.45-.21-2.03-1.41-4.72-1.41-6.75,0-2.03,1.41-4.72,1.41-6.75,0-1.02-.7-2.2-1.06-3.38-1.06Z" fill="#0acffb" fill-rule="evenodd"/>

<path d="M32,48c-1.18,0-2.36,.35-3.38,1.06-2.03,1.41-4.72,1.41-6.75,0-1.02-.71-2.2-1.05-3.38-1.05s-2.36,.35-3.38,1.05c-2.03,1.41-4.72,1.41-6.45,.21-1.73-1.2-3.68-.18-3.68,1.55v1.47c0,1.77,1.43,3.2,3.2,3.2H55.8c1.77,0,3.2-1.43,3.2-3.2v-1.47c0-1.73-1.94-2.75-3.68-1.55-1.73,1.2-4.41,1.2-6.45-.21-2.03-1.41-4.72-1.41-6.75,0-2.03,1.41-4.72,1.41-6.75,0-1.02-.71-2.2-1.06-3.38-1.06Z" fill="#62d9fa" fill-rule="evenodd"/>

<path d="M57.71,30.92l-8.82,.35v2.63c0,.99,.8,1.79,1.79,1.79h5.25c.99,0,1.79-.8,1.79-1.79v-2.99Zm-51.32,0v2.99c0,.99,.8,1.79,1.79,1.79h5.25c.99,0,1.79-.8,1.79-1.79v-2.63l-8.83-.35Z" fill="#fd91ba" fill-rule="evenodd"/>

<rect fill="#fd91ba" height="8.87" width="5.01" x="17.29" y="19.42"/>

<rect fill="#fd91ba" height="8.87" width="5.01" x="41.7" y="19.42"/>

<path d="M53.82,11.06c-2.17,2.95-5.67,4.86-9.63,4.86s-7.43-1.89-9.6-4.82h-5.17c-2.17,2.93-5.66,4.82-9.6,4.82s-7.46-1.91-9.63-4.86l-2.02,3.17,2.02,3.66c2.74,1.9,6.06,3.02,9.63,3.02s6.87-1.11,9.6-3h5.17c2.73,1.89,6.04,3,9.6,3s6.9-1.12,9.64-3.02l1.89-2.25-1.89-4.59Z" fill="#e2eef2" fill-rule="evenodd"/>

<path d="M29.41,26.98V11.1c0-1.43,1.16-2.59,2.59-2.59s2.59,1.15,2.59,2.59v15.88h-5.18Z" fill="#ffa6c5" fill-rule="evenodd"/>

<path d="M5,29.74V11.1c0-1.43,1.16-2.59,2.59-2.59s2.59,1.15,2.59,2.59v15.88l-5.18,2.75Z" fill="#ffa6c5" fill-rule="evenodd"/>

<path d="M59,29.74V11.1c0-1.43-1.16-2.59-2.59-2.59s-2.59,1.15-2.59,2.59v15.88l5.18,2.75Z" fill="#ffa6c5" fill-rule="evenodd"/>

<path d="M7.75,26.98H56.25c1.53,0,2.75,1.23,2.75,2.75s-1.23,2.75-2.75,2.75H7.75c-1.53,0-2.75-1.23-2.75-2.75s1.23-2.75,2.75-2.75Z" fill="#8598ab" fill-rule="evenodd"/>

</g>

<g id="g"/>

<g id="h"/>

<g id="i"/>

<g id="j"/>

<g id="k"/>

<g id="l"/>

<g id="m"/>

<g id="n"/>

<g id="o"/>

<g id="p"/>

<g id="q"/>

<g id="r"/>

<g id="s"/>

<g id="t"/>

<g id="u"/>

<g id="v"/>

<g id="w"/>

<g id="x"/>

<g id="y"/>

<g id="a`"/>

<g id="aa"/>

<g id="ab"/>

<g id="ac"/>

<g id="ad"/>

<g id="ae"/>

<g id="af"/>

<g id="ag"/>

<g id="ah"/>

<g id="ai"/>

<g id="aj"/>

<g id="ak"/>

<g id="al"/>

<g id="am"/>

<g id="an"/>

<g id="ao"/>

<g id="ap"/>

<g id="aq"/>

<g id="ar"/>

<g id="as"/>

<g id="at"/>

<g id="au"/>

<g id="av"/>

<g id="aw"/>

<g id="ax"/>

</svg>