<?xml version="1.0" encoding="iso-8859-1"?>
<!-- Uploaded to: SVG Repo, www.svgrepo.com, Generator: SVG Repo Mixer Tools -->
<svg version="1.1" id="Layer_1" width="16" height="16" xmlns="http://www.w3.org/2000/svg" xmlns:xlink="http://www.w3.org/1999/xlink" 
	 viewBox="0 0 511.986 511.986" xml:space="preserve">
<path style="fill:#37BC9B;" d="M42.659,234.666c0-11.781,9.546-21.335,21.327-21.335h383.997c11.781,0,21.312,9.554,21.312,21.335
	v255.993c0,11.781-9.531,21.327-21.312,21.327H63.986c-11.781,0-21.327-9.546-21.327-21.327V234.666z"/>
<path style="fill:#48CFAD;" d="M42.659,213.331c0-11.781,9.546-21.328,21.327-21.328h383.997c11.781,0,21.312,9.547,21.312,21.328
	v256.001c0,11.781-9.531,21.327-21.312,21.327H63.986c-11.781,0-21.327-9.546-21.327-21.327V213.331z"/>
<polygon style="fill:#ED5564;" points="298.643,0 213.326,85.334 213.326,160.004 298.643,160.004 298.643,85.334 469.327,85.334 
	469.327,0 "/>
<g>
	<path style="fill:#434A54;" d="M213.326,106.67v21.335c5.891-0.008,10.656-4.781,10.656-10.672S219.217,106.67,213.326,106.67z"/>
	<path style="fill:#434A54;" d="M298.643,106.67L298.643,106.67c-5.875,0-10.656,4.772-10.656,10.663s4.781,10.672,10.656,10.672
		l0,0V106.67z"/>
	<path style="fill:#434A54;" d="M213.326,128.005v21.327c5.891,0,10.656-4.772,10.656-10.663S219.217,128.005,213.326,128.005z"/>
	<path style="fill:#434A54;" d="M298.643,128.005c-5.875,0-10.656,4.773-10.656,10.664s4.781,10.663,10.656,10.663V128.005z"/>
</g>
<g>
	<path style="fill:#CCD1D9;" d="M298.643,234.666c0,5.891-4.781,10.664-10.656,10.664c-5.905,0-10.655-4.773-10.655-10.664
		s4.75-10.664,10.655-10.664C293.862,224.002,298.643,228.775,298.643,234.666z"/>
	<path style="fill:#CCD1D9;" d="M277.301,234.666c0,5.891-4.75,10.664-10.648,10.664c-5.89,0-10.671-4.773-10.671-10.664
		s4.781-10.664,10.671-10.664C272.551,224.002,277.301,228.775,277.301,234.666z"/>
	<path style="fill:#CCD1D9;" d="M255.981,234.666c0,5.891-4.766,10.664-10.672,10.664c-5.875,0-10.656-4.773-10.656-10.664
		s4.781-10.664,10.656-10.664C251.216,224.002,255.981,228.775,255.981,234.666z"/>
	<path style="fill:#CCD1D9;" d="M234.653,234.666c0,5.891-4.781,10.664-10.671,10.664c-5.891,0-10.672-4.773-10.672-10.664
		s4.781-10.664,10.672-10.664C229.872,224.002,234.653,228.775,234.653,234.666z"/>
</g>
<path style="fill:#ED5564;" d="M255.981,426.661v-31.515c0-8.812-5.656-16.594-14.062-19.375l-0.641-0.188
	c-9.234-2.484-12.359-4.875-16.468-6.438c-14.594-5.547-18.375-9.562-19.344-11.437c-0.047-0.078-0.062-0.156-0.094-0.219
	l-0.125-16.938l-34.593-0.406l-34.593,0.406l-0.125,16.938c-0.031,0.062-0.062,0.141-0.094,0.219
	c-0.969,1.875-4.766,5.89-19.343,11.437c-4.125,1.562-7.234,3.953-16.484,6.438l-0.625,0.188
	c-8.406,2.781-14.062,10.562-14.062,19.375v31.515L255.981,426.661L255.981,426.661z"/>
<g>
	<path style="fill:#434A54;" d="M287.987,309.336h127.997c5.875,0,10.656-4.781,10.656-10.672s-4.781-10.671-10.656-10.671H287.987
		c-5.905,0-10.687,4.78-10.687,10.671S282.082,309.336,287.987,309.336z"/>
	<path style="fill:#434A54;" d="M415.984,330.664H287.987c-5.905,0-10.687,4.766-10.687,10.671c0,5.875,4.781,10.656,10.687,10.656
		h127.997c5.875,0,10.656-4.781,10.656-10.656C426.64,335.43,421.859,330.664,415.984,330.664z"/>
	<path style="fill:#434A54;" d="M351.986,373.334L351.986,373.334h-63.999c-5.905,0-10.687,4.766-10.687,10.656
		s4.781,10.672,10.687,10.672h63.999l0,0c5.874,0,10.655-4.781,10.655-10.672S357.86,373.334,351.986,373.334z"/>
</g>
<path style="fill:#EAC6BB;" d="M218.654,307.773c0,31.187-29.733,59.873-47.999,59.873c-18.265,0-47.999-28.687-47.999-59.873
	s21.484-51.772,47.999-51.772S218.654,276.587,218.654,307.773z"/>
<rect x="213.323" y="160.003" style="fill:#E6E9ED;" width="85.32" height="74.66"/>
<rect x="298.643" style="fill:#DA4453;" width="170.68" height="85.33"/>
</svg>