<!DOCTYPE svg PUBLIC "-//W3C//DTD SVG 1.1//EN" "http://www.w3.org/Graphics/SVG/1.1/DTD/svg11.dtd">
<!-- Uploaded to: SVG Repo, www.svgrepo.com, Transformed by: SVG Repo Mixer Tools -->
<svg fill="#febebe" height="800px" width="800px" version="1.1" id="Layer_1" xmlns="http://www.w3.org/2000/svg" xmlns:xlink="http://www.w3.org/1999/xlink" viewBox="0 0 512 512" xml:space="preserve" stroke="#febebe" transform="rotate(180)">
<g id="SVGRepo_bgCarrier" stroke-width="0"/>
<g id="SVGRepo_tracerCarrier" stroke-linecap="round" stroke-linejoin="round"/>
<g id="SVGRepo_iconCarrier"> <g> <g> <path d="M355.929,228.318L207.45,148.637c-10.211-5.479-22.627-4.097-31.362,3.204c-8.871,7.413-12.295,19.306-8.723,30.299 l23.061,70.983l-23.061,70.98c-3.573,10.993-0.149,22.886,8.722,30.301c8.74,7.304,21.155,8.682,31.363,3.203l148.48-79.68 c9.153-4.913,14.839-14.418,14.839-24.806C370.768,242.736,365.082,233.232,355.929,228.318z M203.657,321.417l20.497-63.088 c1.099-3.383,1.099-7.025,0-10.408l-20.497-63.089l127.26,68.294L203.657,321.417z"/> </g> </g> <g> <g> <path d="M256,0C114.509,0,0,114.496,0,256c0,141.492,114.496,256,256,256c141.491,0,256-114.496,256-256 C512,114.508,397.504,0,256,0z M256,478.316c-122.873,0-222.316-99.43-222.316-222.316c0-122.874,99.43-222.316,222.316-222.316 c122.873,0,222.316,99.43,222.316,222.316C478.316,378.874,378.886,478.316,256,478.316z"/> </g> </g> </g>
</svg>