<?xml version="1.0" encoding="iso-8859-1"?>
<!-- Uploaded to: SVG Repo, www.svgrepo.com, Generator: SVG Repo Mixer Tools -->
<!DOCTYPE svg PUBLIC "-//W3C//DTD SVG 1.1//EN" "http://www.w3.org/Graphics/SVG/1.1/DTD/svg11.dtd">
<svg fill="#000000" width="16" height="16" version="1.1" id="Capa_1" xmlns="http://www.w3.org/2000/svg" xmlns:xlink="http://www.w3.org/1999/xlink" 
	 viewBox="0 0 407.834 407.834" xml:space="preserve">
<g>
	<path d="M66,217.709v-35c0-1.657-1.343-3-3-3H3c-1.657,0-3,1.343-3,3v35c0,1.657,1.343,3,3,3h60
		C64.657,220.709,66,219.366,66,217.709z"/>
	<path d="M132.666,151.708h60c1.657,0,3-1.343,3-3v-35c0-1.657-1.343-3-3-3h-60c-1.657,0-3,1.343-3,3v35
		C129.666,150.365,131.01,151.708,132.666,151.708z"/>
	<path d="M292,273.375h-60c-1.657,0-3,1.343-3,3v35c0,1.657,1.343,3,3,3h60c1.657,0,3-1.343,3-3v-35
		C295,274.718,293.657,273.375,292,273.375z"/>
	<path d="M404.834,93.459h-60c-1.657,0-3,1.343-3,3v35c0,1.657,1.343,3,3,3h60c1.657,0,3-1.343,3-3v-35
		C407.834,94.802,406.491,93.459,404.834,93.459z"/>
	<path d="M371.499,139.15c-11.045,0-20,8.954-20,20c0,0.64,0.037,1.271,0.096,1.896l-88.943,66.643
		c-2.744-1.417-5.851-2.23-9.152-2.23c-3.186,0-6.186,0.764-8.859,2.089l-62.014-47.962c0.01-0.266,0.04-0.526,0.04-0.794
		c0-11.045-8.955-20-20-20c-11.045,0-20,8.955-20,20c0,0.267,0.03,0.526,0.04,0.79l-58.854,44.996
		c-2.367-0.986-4.962-1.536-7.686-1.536c-11.045,0-20,8.955-20,20c0,11.046,8.955,20,20,20s20-8.954,20-20
		c0-0.871-0.075-1.722-0.183-2.564l57.477-43.943c2.757,1.433,5.883,2.256,9.206,2.256c3.317,0,6.439-0.82,9.193-2.25l61.701,47.72
		c-0.024,0.398-0.061,0.792-0.061,1.197c0,11.045,8.955,20,20,20c11.045,0,20-8.955,20-20c0-0.295-0.031-0.582-0.044-0.874
		l89.753-67.25c2.528,1.155,5.329,1.815,8.29,1.815c11.045,0,20-8.955,20-20C391.499,148.105,382.545,139.15,371.499,139.15z"/>
</g>
</svg>